<svg fill="#000000" xmlns="http://www.w3.org/2000/svg"  viewBox="0 0 50 50" width="500px" height="500px"><path d="M 25 9 C 18.183594 9 12.015625 10.703125 7.484375 13.539063 C 2.949219 16.375 0 20.421875 0 25 C 0 29.578125 2.949219 33.625 7.484375 36.460938 C 12.015625 39.296875 18.183594 41 25 41 C 31.816406 41 37.984375 39.296875 42.515625 36.460938 C 47.050781 33.625 50 29.578125 50 25 C 50 20.464844 47.050781 16.425781 42.519531 13.578125 C 37.988281 10.730469 31.820313 9 25 9 Z M 25 11 C 31.480469 11 37.3125 12.667969 41.453125 15.269531 C 45.597656 17.875 48 21.335938 48 25 C 48 28.71875 45.601563 32.171875 41.457031 34.765625 C 37.3125 37.355469 31.480469 39 25 39 C 18.519531 39 12.6875 37.355469 8.542969 34.765625 C 4.398438 32.171875 2 28.71875 2 25 C 2 21.28125 4.398438 17.828125 8.542969 15.234375 C 12.6875 12.644531 18.519531 11 25 11 Z M 22.097656 14.5 L 21.5 20.402344 C 20.101563 26.300781 12 21.601563 17 15 C 9.898438 16.601563 5.101563 20.601563 5 24.800781 C 5.101563 26.699219 6.199219 28.699219 8 30.402344 C 9.300781 31.601563 11 33.199219 13 34 C 9.699219 29.199219 16.101563 26.800781 19 32 C 20.101563 27.800781 23.898438 30.699219 25 36 C 26.101563 30.699219 29.898438 27.800781 31 32 C 33.898438 26.800781 40.300781 29.199219 37 34 C 39 33.199219 40.699219 31.601563 42 30.5 C 43.800781 28.800781 44.898438 26.800781 45 24.902344 C 44.898438 20.699219 40.101563 16.699219 33 15 C 38 21.601563 29.898438 26.199219 28.5 20.402344 L 27.902344 14.5 L 26.5 16 L 23.5 16 Z"/></svg>